<mxfile host="65bd71144e">
    <diagram id="A1xMkQY2T9iSlDC-6mb3" name="Page-1">
        <mxGraphModel dx="1847" dy="782" grid="1" gridSize="10" guides="1" tooltips="1" connect="1" arrows="1" fold="1" page="1" pageScale="1" pageWidth="827" pageHeight="1169" math="0" shadow="0">
            <root>
                <mxCell id="0"/>
                <mxCell id="1" parent="0"/>
                <mxCell id="4" style="edgeStyle=none;html=1;exitX=0.25;exitY=0;exitDx=0;exitDy=0;entryX=0.25;entryY=0;entryDx=0;entryDy=0;" parent="1" source="3" target="3" edge="1">
                    <mxGeometry relative="1" as="geometry">
                        <mxPoint x="554" y="555" as="targetPoint"/>
                    </mxGeometry>
                </mxCell>
                <mxCell id="3" value="user" style="swimlane;shadow=0;fillColor=#60a917;fontColor=#ffffff;strokeColor=#2D7600;" parent="1" vertex="1">
                    <mxGeometry x="304" y="325" width="180" height="160" as="geometry">
                        <mxRectangle x="10" y="20" width="130" height="23" as="alternateBounds"/>
                    </mxGeometry>
                </mxCell>
                <mxCell id="16" value="" style="shape=lineEllipse;perimeter=ellipsePerimeter;whiteSpace=wrap;html=1;backgroundOutline=1;" parent="3" vertex="1">
                    <mxGeometry x="7" y="50" width="10" height="10" as="geometry"/>
                </mxCell>
                <mxCell id="17" value="username" style="text;html=1;strokeColor=none;fillColor=none;align=center;verticalAlign=middle;whiteSpace=wrap;rounded=0;" parent="3" vertex="1">
                    <mxGeometry x="17" y="21" width="60" height="30" as="geometry"/>
                </mxCell>
                <mxCell id="25" value="login() : string" style="text;html=1;strokeColor=none;fillColor=none;align=center;verticalAlign=middle;whiteSpace=wrap;rounded=0;" parent="3" vertex="1">
                    <mxGeometry y="107" width="180" height="30" as="geometry"/>
                </mxCell>
                <mxCell id="26" value="signup() : string" style="text;html=1;strokeColor=none;fillColor=none;align=center;verticalAlign=middle;whiteSpace=wrap;rounded=0;" parent="3" vertex="1">
                    <mxGeometry y="128" width="180" height="30" as="geometry"/>
                </mxCell>
                <mxCell id="18" value="" style="shape=lineEllipse;perimeter=ellipsePerimeter;whiteSpace=wrap;html=1;backgroundOutline=1;" parent="1" vertex="1">
                    <mxGeometry x="311" y="355" width="10" height="10" as="geometry"/>
                </mxCell>
                <mxCell id="19" value="email" style="text;html=1;strokeColor=none;fillColor=none;align=center;verticalAlign=middle;whiteSpace=wrap;rounded=0;" parent="1" vertex="1">
                    <mxGeometry x="311" y="364" width="60" height="30" as="geometry"/>
                </mxCell>
                <mxCell id="20" value="password" style="text;html=1;strokeColor=none;fillColor=none;align=center;verticalAlign=middle;whiteSpace=wrap;rounded=0;" parent="1" vertex="1">
                    <mxGeometry x="321" y="381" width="60" height="30" as="geometry"/>
                </mxCell>
                <mxCell id="21" value="" style="shape=lineEllipse;perimeter=ellipsePerimeter;whiteSpace=wrap;html=1;backgroundOutline=1;" parent="1" vertex="1">
                    <mxGeometry x="311" y="393" width="10" height="10" as="geometry"/>
                </mxCell>
                <mxCell id="23" value="" style="endArrow=none;html=1;" parent="1" edge="1">
                    <mxGeometry width="50" height="50" relative="1" as="geometry">
                        <mxPoint x="304" y="425" as="sourcePoint"/>
                        <mxPoint x="484" y="425" as="targetPoint"/>
                    </mxGeometry>
                </mxCell>
                <mxCell id="28" value="Ventes" style="swimlane;fillColor=#6a00ff;fontColor=#ffffff;strokeColor=#3700CC;" parent="1" vertex="1">
                    <mxGeometry x="34" y="554" width="200" height="280" as="geometry"/>
                </mxCell>
                <mxCell id="33" value="user_id" style="text;html=1;strokeColor=none;fillColor=none;align=center;verticalAlign=middle;whiteSpace=wrap;rounded=0;" parent="28" vertex="1">
                    <mxGeometry x="-30" y="23" width="150" height="30" as="geometry"/>
                </mxCell>
                <mxCell id="35" value="user_id" style="text;html=1;strokeColor=none;fillColor=none;align=center;verticalAlign=middle;whiteSpace=wrap;rounded=0;" parent="28" vertex="1">
                    <mxGeometry x="18" y="70" width="61" height="30" as="geometry"/>
                </mxCell>
                <mxCell id="45" value="select():string" style="text;html=1;strokeColor=none;fillColor=none;align=center;verticalAlign=middle;whiteSpace=wrap;rounded=0;" parent="28" vertex="1">
                    <mxGeometry x="-4" y="180" width="200" height="30" as="geometry"/>
                </mxCell>
                <mxCell id="47" value="update():string" style="text;html=1;strokeColor=none;fillColor=none;align=center;verticalAlign=middle;whiteSpace=wrap;rounded=0;" parent="28" vertex="1">
                    <mxGeometry x="-3" y="217" width="200" height="30" as="geometry"/>
                </mxCell>
                <mxCell id="36" value="&amp;nbsp; &amp;nbsp; &amp;nbsp;from_date" style="text;html=1;strokeColor=none;fillColor=none;align=center;verticalAlign=middle;whiteSpace=wrap;rounded=0;" parent="28" vertex="1">
                    <mxGeometry x="-26.5" y="46" width="150" height="30" as="geometry"/>
                </mxCell>
                <mxCell id="29" value="" style="shape=lineEllipse;perimeter=ellipsePerimeter;whiteSpace=wrap;html=1;backgroundOutline=1;" parent="1" vertex="1">
                    <mxGeometry x="42" y="587" width="10" height="10" as="geometry"/>
                </mxCell>
                <mxCell id="31" value="" style="shape=lineEllipse;perimeter=ellipsePerimeter;whiteSpace=wrap;html=1;backgroundOutline=1;" parent="1" vertex="1">
                    <mxGeometry x="42" y="610" width="10" height="10" as="geometry"/>
                </mxCell>
                <mxCell id="32" value="" style="shape=lineEllipse;perimeter=ellipsePerimeter;whiteSpace=wrap;html=1;backgroundOutline=1;" parent="1" vertex="1">
                    <mxGeometry x="42" y="634" width="10" height="10" as="geometry"/>
                </mxCell>
                <mxCell id="38" value="" style="shape=lineEllipse;perimeter=ellipsePerimeter;whiteSpace=wrap;html=1;backgroundOutline=1;" parent="1" vertex="1">
                    <mxGeometry x="42" y="654" width="10" height="10" as="geometry"/>
                </mxCell>
                <mxCell id="39" value="to_date" style="text;html=1;strokeColor=none;fillColor=none;align=center;verticalAlign=middle;whiteSpace=wrap;rounded=0;" parent="1" vertex="1">
                    <mxGeometry x="52" y="645" width="61" height="30" as="geometry"/>
                </mxCell>
                <mxCell id="40" value="search" style="text;html=1;strokeColor=none;fillColor=none;align=center;verticalAlign=middle;whiteSpace=wrap;rounded=0;" parent="1" vertex="1">
                    <mxGeometry x="50" y="665" width="61" height="30" as="geometry"/>
                </mxCell>
                <mxCell id="41" value="" style="shape=lineEllipse;perimeter=ellipsePerimeter;whiteSpace=wrap;html=1;backgroundOutline=1;" parent="1" vertex="1">
                    <mxGeometry x="42" y="674" width="10" height="10" as="geometry"/>
                </mxCell>
                <mxCell id="42" value="id_facture" style="text;html=1;strokeColor=none;fillColor=none;align=center;verticalAlign=middle;whiteSpace=wrap;rounded=0;" parent="1" vertex="1">
                    <mxGeometry x="60" y="692" width="61" height="30" as="geometry"/>
                </mxCell>
                <mxCell id="43" value="" style="shape=lineEllipse;perimeter=ellipsePerimeter;whiteSpace=wrap;html=1;backgroundOutline=1;" parent="1" vertex="1">
                    <mxGeometry x="42" y="698" width="10" height="10" as="geometry"/>
                </mxCell>
                <mxCell id="44" value="" style="endArrow=none;html=1;" parent="1" edge="1">
                    <mxGeometry width="50" height="50" relative="1" as="geometry">
                        <mxPoint x="35" y="734" as="sourcePoint"/>
                        <mxPoint x="235" y="734" as="targetPoint"/>
                    </mxGeometry>
                </mxCell>
                <mxCell id="46" value="insert():string" style="text;html=1;strokeColor=none;fillColor=none;align=center;verticalAlign=middle;whiteSpace=wrap;rounded=0;" parent="1" vertex="1">
                    <mxGeometry x="31" y="752" width="200" height="30" as="geometry"/>
                </mxCell>
                <mxCell id="48" value="    TVA" style="swimlane;fillColor=#d80073;fontColor=#ffffff;strokeColor=#A50040;" parent="1" vertex="1">
                    <mxGeometry x="317" y="563" width="200" height="240" as="geometry"/>
                </mxCell>
                <mxCell id="52" value="" style="shape=lineEllipse;perimeter=ellipsePerimeter;whiteSpace=wrap;html=1;backgroundOutline=1;" parent="48" vertex="1">
                    <mxGeometry x="10" y="37" width="10" height="10" as="geometry"/>
                </mxCell>
                <mxCell id="53" value="" style="shape=lineEllipse;perimeter=ellipsePerimeter;whiteSpace=wrap;html=1;backgroundOutline=1;" parent="48" vertex="1">
                    <mxGeometry x="10" y="60" width="10" height="10" as="geometry"/>
                </mxCell>
                <mxCell id="57" value="user_id" style="text;html=1;strokeColor=none;fillColor=none;align=center;verticalAlign=middle;whiteSpace=wrap;rounded=0;" parent="48" vertex="1">
                    <mxGeometry x="26" y="27" width="50" height="30" as="geometry"/>
                </mxCell>
                <mxCell id="62" value="" style="line;strokeWidth=2;html=1;" parent="48" vertex="1">
                    <mxGeometry y="130" width="200" height="10" as="geometry"/>
                </mxCell>
                <mxCell id="63" value="select():string" style="text;html=1;strokeColor=none;fillColor=none;align=center;verticalAlign=middle;whiteSpace=wrap;rounded=0;" parent="48" vertex="1">
                    <mxGeometry y="130" width="200" height="30" as="geometry"/>
                </mxCell>
                <mxCell id="64" value="insert():string" style="text;html=1;strokeColor=none;fillColor=none;align=center;verticalAlign=middle;whiteSpace=wrap;rounded=0;" parent="48" vertex="1">
                    <mxGeometry y="148" width="200" height="30" as="geometry"/>
                </mxCell>
                <mxCell id="65" value="update():string" style="text;html=1;strokeColor=none;fillColor=none;align=center;verticalAlign=middle;whiteSpace=wrap;rounded=0;" parent="48" vertex="1">
                    <mxGeometry y="185" width="200" height="30" as="geometry"/>
                </mxCell>
                <mxCell id="49" value="SUM():string" style="text;html=1;strokeColor=none;fillColor=none;align=center;verticalAlign=middle;whiteSpace=wrap;rounded=0;" parent="1" vertex="1">
                    <mxGeometry x="27" y="789" width="200" height="30" as="geometry"/>
                </mxCell>
                <mxCell id="50" value="facture():string" style="text;html=1;strokeColor=none;fillColor=none;align=center;verticalAlign=middle;whiteSpace=wrap;rounded=0;" parent="1" vertex="1">
                    <mxGeometry x="28" y="809" width="200" height="30" as="geometry"/>
                </mxCell>
                <mxCell id="56" value="" style="shape=lineEllipse;perimeter=ellipsePerimeter;whiteSpace=wrap;html=1;backgroundOutline=1;" parent="1" vertex="1">
                    <mxGeometry x="327" y="650" width="10" height="10" as="geometry"/>
                </mxCell>
                <mxCell id="58" value="order" style="text;html=1;strokeColor=none;fillColor=none;align=center;verticalAlign=middle;whiteSpace=wrap;rounded=0;" parent="1" vertex="1">
                    <mxGeometry x="339" y="613" width="50" height="30" as="geometry"/>
                </mxCell>
                <mxCell id="59" value="fact_number" style="text;html=1;strokeColor=none;fillColor=none;align=center;verticalAlign=middle;whiteSpace=wrap;rounded=0;" parent="1" vertex="1">
                    <mxGeometry x="339" y="640" width="85" height="30" as="geometry"/>
                </mxCell>
                <mxCell id="60" value="Designation" style="text;html=1;strokeColor=none;fillColor=none;align=center;verticalAlign=middle;whiteSpace=wrap;rounded=0;" parent="1" vertex="1">
                    <mxGeometry x="336" y="666" width="85" height="30" as="geometry"/>
                </mxCell>
                <mxCell id="61" value="" style="shape=lineEllipse;perimeter=ellipsePerimeter;whiteSpace=wrap;html=1;backgroundOutline=1;" parent="1" vertex="1">
                    <mxGeometry x="327" y="676" width="10" height="10" as="geometry"/>
                </mxCell>
                <mxCell id="66" value="SUM():string" style="text;html=1;strokeColor=none;fillColor=none;align=center;verticalAlign=middle;whiteSpace=wrap;rounded=0;" parent="1" vertex="1">
                    <mxGeometry x="316" y="767" width="200" height="30" as="geometry"/>
                </mxCell>
                <mxCell id="67" value="persone" style="swimlane;fillColor=#EF24E8;fontColor=#ffffff;strokeColor=#001DBC;" parent="1" vertex="1">
                    <mxGeometry x="597" y="613" width="200" height="160" as="geometry"/>
                </mxCell>
                <mxCell id="69" value="insert():string" style="text;html=1;strokeColor=none;fillColor=none;align=center;verticalAlign=middle;whiteSpace=wrap;rounded=0;" parent="67" vertex="1">
                    <mxGeometry y="50" width="200" height="30" as="geometry"/>
                </mxCell>
                <mxCell id="70" value="update():string" style="text;html=1;strokeColor=none;fillColor=none;align=center;verticalAlign=middle;whiteSpace=wrap;rounded=0;" parent="67" vertex="1">
                    <mxGeometry y="70" width="200" height="30" as="geometry"/>
                </mxCell>
                <mxCell id="71" value="SUM():string" style="text;html=1;strokeColor=none;fillColor=none;align=center;verticalAlign=middle;whiteSpace=wrap;rounded=0;" parent="67" vertex="1">
                    <mxGeometry y="100" width="200" height="30" as="geometry"/>
                </mxCell>
                <mxCell id="72" value="rowCol():string" style="text;html=1;strokeColor=none;fillColor=none;align=center;verticalAlign=middle;whiteSpace=wrap;rounded=0;" parent="67" vertex="1">
                    <mxGeometry y="130" width="200" height="30" as="geometry"/>
                </mxCell>
                <mxCell id="73" value="banque" style="swimlane;fillColor=#33FFFF;fontColor=#ffffff;strokeColor=#A50040;startSize=20;fontStyle=0" parent="1" vertex="1">
                    <mxGeometry x="531" y="30" width="200" height="200" as="geometry">
                        <mxRectangle x="314" y="30" width="70" height="23" as="alternateBounds"/>
                    </mxGeometry>
                </mxCell>
                <mxCell id="76" value="insert():string" style="text;html=1;strokeColor=none;fillColor=none;align=center;verticalAlign=middle;whiteSpace=wrap;rounded=0;" parent="73" vertex="1">
                    <mxGeometry x="-5" y="19" width="200" height="30" as="geometry"/>
                </mxCell>
                <mxCell id="68" value="select():string" style="text;html=1;strokeColor=none;fillColor=none;align=center;verticalAlign=middle;whiteSpace=wrap;rounded=0;" parent="73" vertex="1">
                    <mxGeometry x="-4" y="39" width="200" height="30" as="geometry"/>
                </mxCell>
                <mxCell id="80" value="SUM():string" style="text;html=1;strokeColor=none;fillColor=none;align=center;verticalAlign=middle;whiteSpace=wrap;rounded=0;" parent="73" vertex="1">
                    <mxGeometry x="-2" y="109" width="200" height="30" as="geometry"/>
                </mxCell>
                <mxCell id="81" value="rowCol():string" style="text;html=1;strokeColor=none;fillColor=none;align=center;verticalAlign=middle;whiteSpace=wrap;rounded=0;" parent="73" vertex="1">
                    <mxGeometry x="-4" y="89" width="200" height="30" as="geometry"/>
                </mxCell>
                <mxCell id="82" value="&lt;span style=&quot;color: rgb(220 , 220 , 170) ; background-color: rgb(30 , 30 , 30) ; font-family: &amp;#34;consolas&amp;#34; , &amp;#34;courier new&amp;#34; , monospace ; font-size: 14px&quot;&gt;Sumcompta&lt;/span&gt;():string" style="text;html=1;strokeColor=none;fillColor=none;align=center;verticalAlign=middle;whiteSpace=wrap;rounded=0;" parent="73" vertex="1">
                    <mxGeometry x="-1" y="127" width="200" height="30" as="geometry"/>
                </mxCell>
                <mxCell id="83" value="&lt;span style=&quot;color: rgb(220 , 220 , 170) ; background-color: rgb(30 , 30 , 30) ; font-family: &amp;#34;consolas&amp;#34; , &amp;#34;courier new&amp;#34; , monospace ; font-size: 14px&quot;&gt;Sumbanque&lt;/span&gt;():string" style="text;html=1;strokeColor=none;fillColor=none;align=center;verticalAlign=middle;whiteSpace=wrap;rounded=0;" parent="73" vertex="1">
                    <mxGeometry x="-1" y="147" width="200" height="30" as="geometry"/>
                </mxCell>
                <mxCell id="85" value="delete():string" style="text;html=1;strokeColor=none;fillColor=none;align=center;verticalAlign=middle;whiteSpace=wrap;rounded=0;" parent="73" vertex="1">
                    <mxGeometry x="-4" y="60" width="200" height="30" as="geometry"/>
                </mxCell>
                <mxCell id="77" value="select():string" style="text;html=1;strokeColor=none;fillColor=none;align=center;verticalAlign=middle;whiteSpace=wrap;rounded=0;" parent="1" vertex="1">
                    <mxGeometry x="597" y="644" width="200" height="30" as="geometry"/>
                </mxCell>
                <mxCell id="86" value="delete():string" style="text;html=1;strokeColor=none;fillColor=none;align=center;verticalAlign=middle;whiteSpace=wrap;rounded=0;" parent="1" vertex="1">
                    <mxGeometry x="525" y="105" width="200" height="30" as="geometry"/>
                </mxCell>
                <mxCell id="87" value="&lt;span style=&quot;color: rgb(220 , 220 , 170) ; background-color: rgb(30 , 30 , 30) ; font-family: &amp;#34;consolas&amp;#34; , &amp;#34;courier new&amp;#34; , monospace ; font-size: 14px&quot;&gt;result_compta&lt;/span&gt;():string" style="text;html=1;strokeColor=none;fillColor=none;align=center;verticalAlign=middle;whiteSpace=wrap;rounded=0;" parent="1" vertex="1">
                    <mxGeometry x="528" y="198" width="200" height="30" as="geometry"/>
                </mxCell>
                <mxCell id="88" value="delete():string" style="text;html=1;strokeColor=none;fillColor=none;align=center;verticalAlign=middle;whiteSpace=wrap;rounded=0;" parent="1" vertex="1">
                    <mxGeometry x="317" y="731" width="200" height="30" as="geometry"/>
                </mxCell>
                <mxCell id="91" value="banque" style="swimlane;fillColor=#FF8A14;fontColor=#ffffff;strokeColor=#A50040;startSize=20;fontStyle=0" parent="1" vertex="1">
                    <mxGeometry x="59" y="40" width="200" height="220" as="geometry">
                        <mxRectangle x="314" y="30" width="70" height="23" as="alternateBounds"/>
                    </mxGeometry>
                </mxCell>
                <mxCell id="92" value="insert():string" style="text;html=1;strokeColor=none;fillColor=none;align=center;verticalAlign=middle;whiteSpace=wrap;rounded=0;" parent="91" vertex="1">
                    <mxGeometry x="-5" y="136" width="200" height="30" as="geometry"/>
                </mxCell>
                <mxCell id="93" value="select():string" style="text;html=1;strokeColor=none;fillColor=none;align=center;verticalAlign=middle;whiteSpace=wrap;rounded=0;" parent="91" vertex="1">
                    <mxGeometry x="-4" y="152" width="200" height="30" as="geometry"/>
                </mxCell>
                <mxCell id="94" value="SUM():string" style="text;html=1;strokeColor=none;fillColor=none;align=center;verticalAlign=middle;whiteSpace=wrap;rounded=0;" parent="91" vertex="1">
                    <mxGeometry x="-3" y="199" width="200" height="30" as="geometry"/>
                </mxCell>
                <mxCell id="95" value="rowCol():string" style="text;html=1;strokeColor=none;fillColor=none;align=center;verticalAlign=middle;whiteSpace=wrap;rounded=0;" parent="91" vertex="1">
                    <mxGeometry x="-4" y="186" width="200" height="30" as="geometry"/>
                </mxCell>
                <mxCell id="98" value="delete():string" style="text;html=1;strokeColor=none;fillColor=none;align=center;verticalAlign=middle;whiteSpace=wrap;rounded=0;" parent="91" vertex="1">
                    <mxGeometry x="-4" y="170" width="200" height="30" as="geometry"/>
                </mxCell>
                <mxCell id="102" value="" style="shape=lineEllipse;perimeter=ellipsePerimeter;whiteSpace=wrap;html=1;backgroundOutline=1;" parent="91" vertex="1">
                    <mxGeometry x="9" y="32" width="9" height="10" as="geometry"/>
                </mxCell>
                <mxCell id="99" value="delete():string" style="text;html=1;strokeColor=none;fillColor=none;align=center;verticalAlign=middle;whiteSpace=wrap;rounded=0;" parent="1" vertex="1">
                    <mxGeometry x="53" y="157" width="200" height="30" as="geometry"/>
                </mxCell>
                <mxCell id="101" value="" style="endArrow=none;html=1;entryX=1.032;entryY=-0.216;entryDx=0;entryDy=0;entryPerimeter=0;" parent="1" target="99" edge="1">
                    <mxGeometry width="50" height="50" relative="1" as="geometry">
                        <mxPoint x="60" y="149" as="sourcePoint"/>
                        <mxPoint x="240" y="149" as="targetPoint"/>
                    </mxGeometry>
                </mxCell>
                <mxCell id="103" value="" style="shape=lineEllipse;perimeter=ellipsePerimeter;whiteSpace=wrap;html=1;backgroundOutline=1;" parent="1" vertex="1">
                    <mxGeometry x="68" y="93" width="9" height="10" as="geometry"/>
                </mxCell>
                <mxCell id="104" value="" style="shape=lineEllipse;perimeter=ellipsePerimeter;whiteSpace=wrap;html=1;backgroundOutline=1;" parent="1" vertex="1">
                    <mxGeometry x="68" y="112" width="9" height="10" as="geometry"/>
                </mxCell>
                <mxCell id="105" value="" style="shape=lineEllipse;perimeter=ellipsePerimeter;whiteSpace=wrap;html=1;backgroundOutline=1;" parent="1" vertex="1">
                    <mxGeometry x="67" y="131" width="9" height="10" as="geometry"/>
                </mxCell>
                <mxCell id="106" value="user_id" style="text;html=1;strokeColor=none;fillColor=none;align=center;verticalAlign=middle;whiteSpace=wrap;rounded=0;" parent="1" vertex="1">
                    <mxGeometry x="71" y="62" width="60" height="30" as="geometry"/>
                </mxCell>
                <mxCell id="107" value="Achat" style="text;html=1;strokeColor=none;fillColor=none;align=center;verticalAlign=middle;whiteSpace=wrap;rounded=0;" parent="1" vertex="1">
                    <mxGeometry x="68" y="84" width="60" height="30" as="geometry"/>
                </mxCell>
                <mxCell id="108" value="from" style="text;html=1;strokeColor=none;fillColor=none;align=center;verticalAlign=middle;whiteSpace=wrap;rounded=0;" parent="1" vertex="1">
                    <mxGeometry x="68" y="102" width="60" height="30" as="geometry"/>
                </mxCell>
                <mxCell id="109" value="to" style="text;html=1;strokeColor=none;fillColor=none;align=center;verticalAlign=middle;whiteSpace=wrap;rounded=0;" parent="1" vertex="1">
                    <mxGeometry x="63" y="119" width="60" height="30" as="geometry"/>
                </mxCell>
                <mxCell id="115" value="1&amp;nbsp; &amp;nbsp; &amp;nbsp; &amp;nbsp; &amp;nbsp; &amp;nbsp; &amp;nbsp; &amp;nbsp; &amp;nbsp; &amp;nbsp; &amp;nbsp; 1.*&lt;br&gt;" style="text;html=1;strokeColor=none;fillColor=none;align=center;verticalAlign=middle;whiteSpace=wrap;rounded=0;rotation=-30;strokeWidth=11;" parent="1" vertex="1">
                    <mxGeometry x="206.47" y="494.89" width="106" height="30" as="geometry"/>
                </mxCell>
                <mxCell id="120" value="1.*&amp;nbsp; &amp;nbsp; &amp;nbsp; &amp;nbsp; &amp;nbsp; 1" style="text;html=1;strokeColor=none;fillColor=none;align=center;verticalAlign=middle;whiteSpace=wrap;rounded=0;rotation=-60;strokeWidth=11;" parent="1" vertex="1">
                    <mxGeometry x="462" y="278" width="106" height="30" as="geometry"/>
                </mxCell>
                <mxCell id="121" value="1.*&amp;nbsp; &amp;nbsp; &amp;nbsp; &amp;nbsp; &amp;nbsp; 1" style="text;html=1;strokeColor=none;fillColor=none;align=center;verticalAlign=middle;whiteSpace=wrap;rounded=0;rotation=-125;strokeWidth=11;" parent="1" vertex="1">
                    <mxGeometry x="257.32" y="248.43" width="106" height="28" as="geometry"/>
                </mxCell>
                <mxCell id="122" value="1.*&amp;nbsp; &amp;nbsp; &amp;nbsp; &amp;nbsp; &amp;nbsp; 1" style="text;html=1;strokeColor=none;fillColor=none;align=center;verticalAlign=middle;whiteSpace=wrap;rounded=0;rotation=45;strokeWidth=11;" parent="1" vertex="1">
                    <mxGeometry x="522" y="507" width="106" height="30" as="geometry"/>
                </mxCell>
                <mxCell id="123" value="1.*&amp;nbsp; &amp;nbsp; &amp;nbsp; &amp;nbsp; &amp;nbsp; 1" style="text;html=1;strokeColor=none;fillColor=none;align=center;verticalAlign=middle;whiteSpace=wrap;rounded=0;rotation=90;strokeWidth=11;" parent="1" vertex="1">
                    <mxGeometry x="365" y="510.89" width="106" height="30" as="geometry"/>
                </mxCell>
                <mxCell id="124" value="" style="endArrow=none;html=1;exitX=1;exitY=0.25;exitDx=0;exitDy=0;entryX=0.25;entryY=1;entryDx=0;entryDy=0;" parent="1" source="3" target="87" edge="1">
                    <mxGeometry width="50" height="50" relative="1" as="geometry">
                        <mxPoint x="390" y="370" as="sourcePoint"/>
                        <mxPoint x="440" y="320" as="targetPoint"/>
                    </mxGeometry>
                </mxCell>
                <mxCell id="125" value="" style="endArrow=none;html=1;exitX=0.25;exitY=0;exitDx=0;exitDy=0;entryX=1;entryY=0;entryDx=0;entryDy=0;" parent="1" source="3" target="94" edge="1">
                    <mxGeometry width="50" height="50" relative="1" as="geometry">
                        <mxPoint x="380" y="410" as="sourcePoint"/>
                        <mxPoint x="430" y="360" as="targetPoint"/>
                    </mxGeometry>
                </mxCell>
                <mxCell id="126" value="" style="endArrow=none;html=1;exitX=0.25;exitY=1;exitDx=0;exitDy=0;entryX=1;entryY=0;entryDx=0;entryDy=0;" parent="1" source="26" target="28" edge="1">
                    <mxGeometry width="50" height="50" relative="1" as="geometry">
                        <mxPoint x="380" y="500" as="sourcePoint"/>
                        <mxPoint x="430" y="450" as="targetPoint"/>
                    </mxGeometry>
                </mxCell>
                <mxCell id="127" value="" style="endArrow=none;html=1;entryX=0.5;entryY=1;entryDx=0;entryDy=0;" parent="1" target="26" edge="1">
                    <mxGeometry width="50" height="50" relative="1" as="geometry">
                        <mxPoint x="394" y="560" as="sourcePoint"/>
                        <mxPoint x="400" y="520" as="targetPoint"/>
                    </mxGeometry>
                </mxCell>
                <mxCell id="128" value="" style="endArrow=none;html=1;entryX=1;entryY=1;entryDx=0;entryDy=0;exitX=0.25;exitY=0;exitDx=0;exitDy=0;" parent="1" source="67" target="26" edge="1">
                    <mxGeometry width="50" height="50" relative="1" as="geometry">
                        <mxPoint x="480" y="590" as="sourcePoint"/>
                        <mxPoint x="530" y="540" as="targetPoint"/>
                    </mxGeometry>
                </mxCell>
            </root>
        </mxGraphModel>
    </diagram>
</mxfile>